<svg width="44" height="44" viewBox="0 0 44 44" fill="none" xmlns="http://www.w3.org/2000/svg">
<rect x="1" y="1" width="42" height="42" rx="9" stroke="#909090" stroke-width="2"/>
<path d="M33 22.5C33 23.0863 32.5988 23.5615 32.1039 23.5615H13.0855L20.4854 32.1816C20.8383 32.5926 20.8431 33.2647 20.4961 33.6827C20.1491 34.1008 19.5817 34.1064 19.2288 33.6954L10.2693 23.2587C10.2676 23.2566 10.2658 23.2546 10.2641 23.2525C10.2617 23.2498 10.2594 23.247 10.2572 23.2443C9.95511 22.8804 9.9196 22.324 10.1482 21.9149C10.1699 21.876 10.194 21.8385 10.2205 21.8026C10.2322 21.7866 10.2445 21.771 10.2572 21.7557C10.2582 21.7545 10.2592 21.7532 10.2603 21.7519C10.2677 21.7431 10.275 21.7345 10.2824 21.7261L19.2288 11.3046C19.5817 10.8936 20.1491 10.8992 20.4961 11.3173C20.8431 11.7353 20.8383 12.4074 20.4854 12.8184L13.0855 21.4385H32.1039C32.5988 21.4385 33 21.9137 33 22.5Z" fill="#909090" stroke="#909090" stroke-linecap="round" stroke-linejoin="round"/>
</svg>
