<svg width="44" height="44" viewBox="0 0 44 44" fill="none" xmlns="http://www.w3.org/2000/svg">
<rect x="1" y="1" width="42" height="42" rx="13" stroke="#909090" stroke-width="2"/>
<path d="M25.525 12.325C25.2768 12.7696 25.0555 13.2288 24.8625 13.7C22.966 13.4001 21.0341 13.4001 19.1375 13.7C18.9445 13.2288 18.7233 12.7696 18.475 12.325C16.6885 12.6303 14.9518 13.1769 13.3125 13.95C10.3812 18.1804 9.05181 23.3162 9.56252 28.4375C11.4728 29.8736 13.6168 30.9689 15.9 31.675C16.4199 30.9883 16.8839 30.2609 17.2875 29.5C16.5426 29.2254 15.8266 28.8778 15.15 28.4625C15.3356 28.339 15.5111 28.2011 15.675 28.05C17.6481 29.0004 19.81 29.4939 22 29.4939C24.1901 29.4939 26.3519 29.0004 28.325 28.05C28.5 28.2 28.675 28.3375 28.85 28.4625C28.1697 28.8746 27.4545 29.2259 26.7125 29.5125C27.0994 30.2907 27.551 31.035 28.0625 31.7375C30.3428 31.0338 32.4832 29.9382 34.3875 28.5C34.9105 23.3778 33.58 18.2377 30.6375 14.0125C29.0167 13.2234 27.2971 12.6559 25.525 12.325ZM17.85 25.5125C17.2245 25.4676 16.6407 25.1821 16.2212 24.716C15.8016 24.2498 15.579 23.6393 15.6 23.0125C15.5758 22.3849 15.7974 21.7726 16.2175 21.3058C16.6377 20.8389 17.2233 20.5544 17.85 20.5125C18.4767 20.5544 19.0623 20.8389 19.4825 21.3058C19.9027 21.7726 20.1242 22.3849 20.1 23.0125C20.1242 23.6401 19.9027 24.2524 19.4825 24.7192C19.0623 25.1861 18.4767 25.4707 17.85 25.5125ZM26.15 25.5125C25.5245 25.4676 24.9407 25.1821 24.5212 24.716C24.1016 24.2498 23.879 23.6393 23.9 23.0125C23.8758 22.3849 24.0974 21.7726 24.5175 21.3058C24.9377 20.8389 25.5233 20.5544 26.15 20.5125C26.7779 20.5512 27.3654 20.8349 27.7862 21.3024C28.207 21.77 28.4274 22.3841 28.4 23.0125C28.4274 23.6409 28.207 24.255 27.7862 24.7226C27.3654 25.1901 26.7779 25.4738 26.15 25.5125Z" fill="#909090"/>
</svg>
