<svg width="44" height="44" viewBox="0 0 44 44" fill="none" xmlns="http://www.w3.org/2000/svg">
<rect x="1" y="1" width="42" height="42" rx="9" stroke="#909090" stroke-width="2"/>
<path d="M33.1836 17.3813C33.171 16.4345 32.9938 15.4972 32.6598 14.6113C32.3703 13.8639 31.928 13.1853 31.3613 12.6185C30.7946 12.0518 30.1159 11.6096 29.3686 11.32C28.494 10.9917 27.5701 10.8142 26.6361 10.795C25.4336 10.7413 25.0523 10.7263 21.9998 10.7263C18.9473 10.7263 18.5561 10.7263 17.3623 10.795C16.4288 10.8143 15.5053 10.9918 14.6311 11.32C13.8837 11.6094 13.2049 12.0516 12.6381 12.6183C12.0714 13.185 11.6292 13.8638 11.3398 14.6113C11.0109 15.4852 10.8337 16.4089 10.8161 17.3425C10.7623 18.5463 10.7461 18.9275 10.7461 21.98C10.7461 25.0325 10.7461 25.4225 10.8161 26.6175C10.8348 27.5525 11.0111 28.475 11.3398 29.3513C11.6297 30.0985 12.0722 30.777 12.6391 31.3435C13.2061 31.91 13.8849 32.352 14.6323 32.6413C15.5041 32.9828 16.4278 33.173 17.3636 33.2038C18.5673 33.2575 18.9486 33.2738 22.0011 33.2738C25.0536 33.2738 25.4448 33.2738 26.6386 33.2038C27.5725 33.1854 28.4965 33.0083 29.3711 32.68C30.1182 32.3901 30.7967 31.9477 31.3634 31.3811C31.9301 30.8144 32.3724 30.1359 32.6623 29.3888C32.9911 28.5138 33.1673 27.5913 33.1861 26.655C33.2398 25.4525 33.2561 25.0713 33.2561 22.0175C33.2536 18.965 33.2536 18.5775 33.1836 17.3813ZM21.9923 27.7525C18.7998 27.7525 16.2136 25.1663 16.2136 21.9738C16.2136 18.7813 18.7998 16.195 21.9923 16.195C23.525 16.195 24.9948 16.8038 26.0785 17.8876C27.1623 18.9713 27.7711 20.4411 27.7711 21.9738C27.7711 23.5064 27.1623 24.9762 26.0785 26.0599C24.9948 27.1437 23.525 27.7525 21.9923 27.7525ZM28.0011 17.3288C27.8241 17.3289 27.6488 17.2942 27.4852 17.2265C27.3217 17.1589 27.1731 17.0596 27.0479 16.9345C26.9227 16.8093 26.8235 16.6607 26.7558 16.4971C26.6882 16.3336 26.6534 16.1583 26.6536 15.9813C26.6536 15.8044 26.6884 15.6292 26.7561 15.4658C26.8238 15.3024 26.923 15.1539 27.0481 15.0289C27.1732 14.9038 27.3216 14.8046 27.485 14.7369C27.6485 14.6692 27.8236 14.6344 28.0005 14.6344C28.1773 14.6344 28.3525 14.6692 28.5159 14.7369C28.6793 14.8046 28.8278 14.9038 28.9529 15.0289C29.0779 15.1539 29.1771 15.3024 29.2448 15.4658C29.3125 15.6292 29.3473 15.8044 29.3473 15.9813C29.3473 16.7263 28.7448 17.3288 28.0011 17.3288Z" fill="#909090"/>
<path d="M21.9925 25.7275C24.0657 25.7275 25.7463 24.0469 25.7463 21.9738C25.7463 19.9006 24.0657 18.22 21.9925 18.22C19.9194 18.22 18.2388 19.9006 18.2388 21.9738C18.2388 24.0469 19.9194 25.7275 21.9925 25.7275Z" fill="#909090"/>
</svg>
