<svg width="44" height="44" viewBox="0 0 44 44" fill="none" xmlns="http://www.w3.org/2000/svg">
<rect x="1" y="1" width="42" height="42" rx="13" stroke="#909090" stroke-width="2"/>
<path d="M22.2491 11.2752C22.9489 10.6583 24.0621 11.146 24.0621 12.0696V31.9304C24.0621 32.854 22.9489 33.3417 22.2491 32.7248L17.1522 28.2313C16.6108 27.754 15.9089 27.49 15.1814 27.49H12.2609C10.4599 27.49 9 26.0562 9 24.2875V19.7125C9 17.9438 10.4599 16.51 12.2609 16.51H15.1814C15.9089 16.51 16.6108 16.246 17.1522 15.7687L22.2491 11.2752ZM29.2407 12.4813C29.5338 12.1739 30.0251 12.158 30.3381 12.4459L30.3447 12.452C30.1288 12.2399 30.3387 12.4464 30.3387 12.4464L30.3393 12.447L30.3408 12.4483L30.3447 12.452L30.3562 12.4628C30.3655 12.4716 30.3779 12.4835 30.3933 12.4985C30.4241 12.5285 30.4666 12.571 30.5192 12.6259C30.6245 12.7356 30.7704 12.8949 30.9431 13.1032C31.2884 13.5193 31.7426 14.1325 32.195 14.9363C33.1009 16.5458 34 18.9211 34 22C34 25.0789 33.1009 27.4542 32.195 29.0637C31.7426 29.8675 31.2884 30.4807 30.9431 30.8968C30.7704 31.1051 30.6245 31.2644 30.5192 31.3741C30.4666 31.429 30.4241 31.4715 30.3933 31.5015C30.3779 31.5165 30.3655 31.5284 30.3562 31.5372L30.3447 31.548L30.3408 31.5517L30.3393 31.553L30.3387 31.5536C30.3387 31.5536 30.7496 31.15 30.3381 31.5541C30.0251 31.842 29.5338 31.8261 29.2407 31.5187C28.9482 31.2119 28.9637 30.7305 29.2752 30.4425L29.2763 30.4414L29.2783 30.4395C29.2819 30.4361 29.2887 30.4296 29.2983 30.4202C29.3176 30.4013 29.3485 30.3706 29.3892 30.3281C29.4708 30.2432 29.5918 30.1113 29.7393 29.9335C30.0346 29.5777 30.4344 29.0395 30.836 28.3259C31.6382 26.9006 32.4472 24.7771 32.4472 22C32.4472 19.2229 31.6382 17.0994 30.836 15.6741C30.4344 14.9605 30.0346 14.4223 29.7393 14.0665C29.5918 13.8887 29.4708 13.7568 29.3892 13.6718C29.3485 13.6294 29.3176 13.5987 29.2983 13.5798C29.2887 13.5704 29.2819 13.5639 29.2783 13.5605L29.2763 13.5586L29.2752 13.5576C28.9637 13.2695 28.9481 12.7881 29.2407 12.4813ZM26.754 16.1436C27.0458 15.835 27.5371 15.8172 27.8513 16.1037L27.8911 16.1412C27.8283 16.0835 27.8518 16.1042 27.8518 16.1042L27.8523 16.1047L27.8536 16.1058L27.8566 16.1086L27.8651 16.1165C27.8718 16.1228 27.8805 16.131 27.8911 16.1412C27.9123 16.1616 27.941 16.1899 27.9763 16.2259C28.0467 16.2979 28.1433 16.4011 28.2571 16.5342C28.4846 16.8001 28.7831 17.1881 29.0806 17.6889C29.6754 18.6903 30.2733 20.1563 30.2733 22C30.2733 23.8437 29.6754 25.3097 29.0806 26.3111C28.7831 26.8119 28.4846 27.1999 28.2571 27.4658C28.1433 27.5989 28.0467 27.7021 27.9763 27.7741C27.941 27.8101 27.9123 27.8384 27.8911 27.8588C27.8867 27.863 27.8827 27.8668 27.879 27.8704C27.8737 27.8754 27.869 27.8798 27.8651 27.8835L27.8566 27.8914L27.8536 27.8942L27.8518 27.8958C27.8518 27.8958 28.0994 27.653 27.8566 27.8914L27.8513 27.8963C27.5371 28.1828 27.0458 28.165 26.754 27.8564C26.4629 27.5484 26.4804 27.0674 26.7926 26.7806L26.7937 26.7797L26.8037 26.7701C26.8144 26.7598 26.8323 26.7422 26.8565 26.7175C26.905 26.668 26.9782 26.59 27.0682 26.4849C27.2483 26.2742 27.4933 25.9569 27.7393 25.5427C28.2315 24.7141 28.7205 23.5114 28.7205 22C28.7205 20.4886 28.2315 19.2859 27.7393 18.4573C27.4933 18.0431 27.2483 17.7258 27.0682 17.5151C26.9782 17.41 26.905 17.332 26.8565 17.2825C26.8323 17.2577 26.8144 17.2402 26.8037 17.2299L26.7933 17.22L26.7938 17.2205C26.4801 16.9339 26.4624 16.4521 26.754 16.1436Z" fill="#909090"/>
</svg>
