<svg width="44" height="44" viewBox="0 0 44 44" fill="none" xmlns="http://www.w3.org/2000/svg">
<rect x="1" y="1" width="42" height="42" rx="13" stroke="#909090" stroke-width="2"/>
<path d="M22.125 16.7497C19.2906 16.7497 16.9929 19.1003 16.9929 22C16.9929 24.8996 19.2906 27.2502 22.125 27.2502C24.9595 27.2502 27.2572 24.8996 27.2572 22C27.2572 19.1003 24.9595 16.7497 22.125 16.7497ZM18.7036 22C18.7036 20.0669 20.2354 18.4998 22.125 18.4998C24.0147 18.4998 25.5465 20.0669 25.5465 22C25.5465 23.9331 24.0147 25.5001 22.125 25.5001C20.2354 25.5001 18.7036 23.9331 18.7036 22ZM19.0418 35.6283C20.0535 35.8752 21.09 36 22.13 36C23.1679 35.9989 24.202 35.8734 25.2114 35.6262C25.4767 35.5608 25.7159 35.4134 25.8964 35.2039C26.0769 34.9945 26.1899 34.7332 26.22 34.4557L26.4513 32.3059C26.4904 31.9215 26.6623 31.5639 26.9362 31.2976C27.21 31.0313 27.5678 30.8738 27.9451 30.8533C28.1959 30.8422 28.4459 30.8901 28.6759 30.9933L30.5967 31.8551C30.7637 31.9319 30.9445 31.9722 31.1276 31.9734C31.3107 31.9746 31.4921 31.9367 31.6601 31.8621C31.8287 31.7884 31.9803 31.6791 32.1048 31.5415C33.5172 29.9841 34.5716 28.1236 35.191 26.0959C35.2721 25.8269 35.2695 25.5388 35.1837 25.2713C35.0979 25.0039 34.9331 24.7703 34.712 24.6027L33.0054 23.3147C32.8021 23.1636 32.6367 22.9655 32.5226 22.7366C32.4085 22.5076 32.3491 22.2542 32.3491 21.9972C32.3491 21.7402 32.4085 21.4868 32.5226 21.2578C32.6367 21.0289 32.8021 20.8308 33.0054 20.6797L34.7065 19.3945C34.9283 19.2267 35.0936 18.9925 35.1794 18.7243C35.2652 18.4561 35.2674 18.1673 35.1855 17.8978C34.5659 15.8698 33.5102 14.0096 32.096 12.4536C31.9086 12.2487 31.6636 12.1084 31.395 12.052C31.1263 11.9955 30.8471 12.0258 30.596 12.1386L28.6759 13.0039C28.4767 13.0957 28.2607 13.1434 28.0422 13.1439C27.648 13.1433 27.2678 12.9937 26.9747 12.724C26.6816 12.4542 26.4962 12.0832 26.454 11.6822L26.2214 9.54008C26.1916 9.25893 26.0766 8.99433 25.8926 8.78333C25.7085 8.57233 25.4646 8.42548 25.1949 8.36333C24.1909 8.13402 23.1662 8.01225 22.1375 8C21.1016 8.01224 20.0696 8.13424 19.0583 8.36403C18.7889 8.42583 18.5451 8.5722 18.3611 8.78269C18.1771 8.99318 18.062 9.25727 18.0318 9.53799L17.7985 11.6815C17.7548 12.0829 17.5679 12.4538 17.2736 12.7231C16.9731 12.9843 16.5942 13.1325 16.2 13.1432C15.9826 13.143 15.7675 13.0968 15.5684 13.0074L13.6524 12.1421C13.4004 12.0283 13.1201 11.9976 12.8503 12.0543C12.5805 12.111 12.3347 12.2523 12.147 12.4585C10.7344 14.0148 9.67978 15.8744 9.06017 17.9013C8.97835 18.1707 8.9805 18.4594 9.06633 18.7275C9.15216 18.9955 9.31741 19.2296 9.53917 19.3973L11.2424 20.6825C11.444 20.8348 11.6079 21.0333 11.721 21.2621C11.8342 21.4909 11.8933 21.7436 11.8938 22C11.894 22.2568 11.8352 22.5101 11.722 22.7393C11.6088 22.9685 11.4445 23.1673 11.2424 23.3196L9.53849 24.6069C9.31701 24.7745 9.15193 25.0083 9.06611 25.2761C8.98029 25.5439 8.97797 25.8323 9.05948 26.1015C9.67775 28.1303 10.7323 29.9918 12.1456 31.5492C12.2684 31.6851 12.4175 31.7934 12.5836 31.867C12.751 31.9423 12.932 31.9812 13.1149 31.9812C13.2978 31.9812 13.4788 31.9423 13.6462 31.867L15.5752 31.0011C15.7742 30.9113 15.9894 30.8651 16.2068 30.8653H16.2123C16.605 30.8658 16.9838 31.014 17.2765 31.2817C17.5692 31.5495 17.7555 31.918 17.7999 32.3171L18.0311 34.4571C18.0614 34.735 18.1746 34.9966 18.3555 35.2062C18.5364 35.4158 18.7761 35.5632 19.0418 35.6283ZM24.5599 33.9867C22.9585 34.337 21.3029 34.337 19.7015 33.9867L19.4935 32.1232C19.403 31.2963 19.0182 30.5324 18.4124 29.9772C17.8066 29.4221 17.0222 29.1144 16.2089 29.1131H16.2021C15.7484 29.1112 15.2995 29.2065 14.8841 29.3931L13.2104 30.1442C12.1243 28.8914 11.2957 27.4281 10.7736 25.8411L12.2558 24.721C12.6733 24.4061 13.0126 23.9953 13.2465 23.5216C13.4803 23.0479 13.6022 22.5247 13.6022 21.9941C13.6022 21.4634 13.4803 20.9402 13.2465 20.4665C13.0126 19.9928 12.6733 19.582 12.2558 19.2671L10.775 18.147C11.2978 16.5619 12.1265 15.1002 13.2117 13.8488L14.8759 14.5992C15.292 14.7877 15.7422 14.8847 16.1973 14.8842H16.2041C17.0194 14.8826 17.8056 14.574 18.4127 14.0172C19.0198 13.4605 19.4052 12.6945 19.4955 11.8656L19.7008 10.0035C20.5036 9.83894 21.3196 9.75084 22.1382 9.7403C22.9505 9.75086 23.7601 9.83874 24.5565 10.0028L24.7618 11.8642C24.8496 12.693 25.2333 13.4596 25.8394 14.0168C26.4456 14.5741 27.2314 14.883 28.0464 14.8842C28.506 14.8953 28.9618 14.797 29.378 14.5971L31.0408 13.8474C32.1267 15.0987 32.9556 16.5607 33.4782 18.1463L32.0022 19.2615C31.5817 19.575 31.2396 19.9857 31.0038 20.4601C30.7679 20.9346 30.645 21.4593 30.645 21.9916C30.645 22.5239 30.7679 23.0486 31.0038 23.5231C31.2396 23.9975 31.5817 24.4082 32.0022 24.7217L33.4837 25.8418C32.9606 27.4267 32.1323 28.8882 31.0476 30.14L29.3773 29.391C28.902 29.1751 28.3835 29.0772 27.8643 29.1055C27.345 29.1337 26.8396 29.2872 26.3893 29.5534C25.9391 29.8197 25.5569 30.1911 25.2738 30.6373C24.9906 31.0836 24.8147 31.592 24.7604 32.1211L24.5599 33.9867Z" fill="#909090" stroke="#909090"/>
</svg>
